<svg width="24" height="25" viewBox="0 0 24 25" fill="none" xmlns="http://www.w3.org/2000/svg">
<g opacity="0.4" clipPath="url(#clip0_2_1685)">
<path d="M12.9399 12.9199L17.7999 8.05991C17.9091 7.93238 17.9662 7.76833 17.9597 7.60054C17.9532 7.43276 17.8837 7.2736 17.7649 7.15487C17.6462 7.03614 17.4871 6.96659 17.3193 6.96011C17.1515 6.95362 16.9874 7.0107 16.8599 7.11991L11.9999 11.9799L7.1399 7.11325C7.01237 7.00403 6.84832 6.94696 6.68053 6.95344C6.51275 6.95992 6.35359 7.02947 6.23486 7.1482C6.11613 7.26693 6.04657 7.42609 6.04009 7.59388C6.03361 7.76166 6.09068 7.92571 6.1999 8.05325L11.0599 12.9199L6.19323 17.7799C6.12345 17.8397 6.06677 17.9132 6.02675 17.9959C5.98674 18.0786 5.96425 18.1687 5.9607 18.2605C5.95716 18.3524 5.97263 18.4439 6.00614 18.5295C6.03966 18.615 6.0905 18.6927 6.15547 18.7577C6.22044 18.8227 6.29814 18.8735 6.38369 18.907C6.46924 18.9405 6.56079 18.956 6.6526 18.9524C6.74442 18.9489 6.8345 18.9264 6.91721 18.8864C6.99992 18.8464 7.07347 18.7897 7.13323 18.7199L11.9999 13.8599L16.8599 18.7199C16.9874 18.8291 17.1515 18.8862 17.3193 18.8797C17.4871 18.8732 17.6462 18.8037 17.7649 18.685C17.8837 18.5662 17.9532 18.4071 17.9597 18.2393C17.9662 18.0715 17.9091 17.9074 17.7999 17.7799L12.9399 12.9199Z" fill="#333333"/>
</g>
<defs>
<clipPath id="clip0_2_1685">
<rect width="24" height="24" fill="white" transform="translate(0 0.919922)"/>
</clipPath>
</defs>
</svg>
